<?xml version="1.0" standalone="no"?>
<!DOCTYPE svg PUBLIC "-//W3C//DTD SVG 20010904//EN"
 "http://www.w3.org/TR/2001/REC-SVG-20010904/DTD/svg10.dtd">
<svg version="1.0" xmlns="http://www.w3.org/2000/svg"
 width="293.000000pt" height="43.000000pt" viewBox="0 0 293.000000 43.000000"
 preserveAspectRatio="xMidYMid meet">
<metadata>
Created by potrace 1.15, written by Peter Selinger 2001-2017
</metadata>
<g transform="translate(0.000000,43.000000) scale(0.100000,-0.100000)"
fill="#000000" stroke="none">
<path d="M92 287 c-50 -51 -92 -97 -92 -103 0 -13 183 -184 197 -184 4 0 51
43 103 95 l95 95 -99 93 c-55 50 -102 93 -105 95 -4 1 -48 -40 -99 -91z"/>
<path d="M1160 317 c-82 -28 -57 -137 30 -137 11 0 20 -4 20 -10 0 -13 -13
-13 -45 2 -22 10 -29 9 -48 -11 l-22 -22 24 -20 c29 -24 116 -26 149 -3 27 19
30 78 5 106 -16 18 -16 21 0 48 17 28 17 29 0 38 -33 17 -78 20 -113 9z"/>
<path d="M520 285 c0 -31 3 -35 25 -35 24 0 25 -2 25 -75 l0 -75 40 0 40 0 0
75 0 75 30 0 c28 0 30 3 30 35 l0 35 -95 0 -95 0 0 -35z"/>
<path d="M740 210 l0 -110 40 0 40 0 0 40 c0 33 3 40 20 40 17 0 20 -7 20 -40
0 -39 1 -40 35 -40 l35 0 0 110 0 110 -35 0 c-33 0 -35 -2 -35 -35 0 -28 -4
-35 -20 -35 -16 0 -20 7 -20 35 0 34 -1 35 -40 35 l-40 0 0 -110z"/>
<path d="M990 210 l0 -110 35 0 35 0 0 110 0 110 -35 0 -35 0 0 -110z"/>
<path d="M1356 301 c-11 -12 -16 -31 -14 -52 3 -35 25 -52 81 -64 20 -4 27
-11 25 -23 -4 -18 -32 -21 -79 -8 -20 6 -28 3 -33 -10 -10 -26 7 -37 68 -42
45 -4 57 -1 75 17 25 25 28 73 5 92 -9 8 -33 19 -53 24 -42 12 -50 40 -11 39
14 0 31 -3 38 -5 8 -2 19 4 25 14 16 24 -5 37 -64 37 -33 0 -51 -6 -63 -19z"/>
<path d="M1660 300 c0 -16 7 -20 30 -20 l30 0 0 -90 c0 -89 0 -90 25 -90 25 0
25 1 25 90 l0 90 30 0 c23 0 30 4 30 20 0 18 -7 20 -85 20 -78 0 -85 -2 -85
-20z"/>
<path d="M1880 210 l0 -110 75 0 c68 0 75 2 75 20 0 17 -7 20 -50 20 -47 0
-50 2 -50 25 0 23 4 25 45 25 38 0 45 3 45 20 0 17 -7 20 -45 20 -41 0 -45 2
-45 25 0 23 3 25 50 25 43 0 50 3 50 20 0 18 -7 20 -75 20 l-75 0 0 -110z"/>
</g>
</svg>
